<?xml version="1.0" encoding="UTF-8" standalone="no"?>
<!-- Created with Inkscape (http://www.inkscape.org/) -->

<svg
   width="94.112053"
   height="12.359999"
   viewBox="0 0 94.11205 12.359999"
   version="1.1"
   id="svg1"
   sodipodi:docname="contact.svg"
   xmlns:inkscape="http://www.inkscape.org/namespaces/inkscape"
   xmlns:sodipodi="http://sodipodi.sourceforge.net/DTD/sodipodi-0.dtd"
   xmlns="http://www.w3.org/2000/svg"
   xmlns:svg="http://www.w3.org/2000/svg">
  <sodipodi:namedview
     id="namedview1"
     pagecolor="#505050"
     bordercolor="#eeeeee"
     borderopacity="1"
     inkscape:showpageshadow="0"
     inkscape:pageopacity="0"
     inkscape:pagecheckerboard="0"
     inkscape:deskcolor="#505050"
     inkscape:document-units="px">
    <inkscape:page
       x="0"
       y="0"
       width="94.112053"
       height="12.359999"
       id="page1"
       margin="0"
       bleed="0" />
  </sodipodi:namedview>
  <defs
     id="defs1" />
  <g
     inkscape:label="Layer 1"
     inkscape:groupmode="layer"
     id="layer1"
     transform="translate(-96.694382,-209.37871)">
    <path
       d="m 97.750383,221.73871 c -0.152,0 -0.292,-0.012 -0.42,-0.036 -0.128,-0.024 -0.244,-0.056 -0.348,-0.096 l 0.216,-0.876 c 0.064,0.024 0.14,0.048 0.228,0.072 0.088,0.024 0.18,0.036 0.276,0.036 0.368,0 0.668,-0.136 0.9,-0.408 0.24,-0.264 0.428,-0.596 0.564,-0.996 l 0.144,-0.492 -2.616,-6.528 h 1.14 l 1.32,3.612 c 0.104,0.288 0.208,0.592 0.312,0.912 0.112,0.32 0.224,0.632 0.336,0.936 h 0.06 c 0.088,-0.304 0.175997,-0.612 0.263997,-0.924 0.096,-0.32 0.184,-0.628 0.264,-0.924 l 1.176,-3.612 h 1.068 l -2.448,7.068 c -0.152,0.424 -0.335997,0.804 -0.551997,1.14 -0.216,0.344 -0.476,0.616 -0.78,0.816 -0.304,0.2 -0.672,0.3 -1.104,0.3 z m 8.591747,-2.652 c -0.528,0 -1.024,-0.132 -1.488,-0.396 -0.464,-0.272 -0.836,-0.66 -1.116,-1.164 -0.272,-0.512 -0.408,-1.128 -0.408,-1.848 0,-0.728 0.136,-1.344 0.408,-1.848 0.28,-0.512 0.652,-0.904 1.116,-1.176 0.464,-0.272 0.96,-0.408 1.488,-0.408 0.4,0 0.78,0.076 1.14,0.228 0.368,0.152 0.692,0.376 0.972,0.672 0.28,0.296 0.5,0.656 0.66,1.08 0.16,0.424 0.24,0.908 0.24,1.452 0,0.72 -0.14,1.336 -0.42,1.848 -0.28,0.504 -0.648,0.892 -1.104,1.164 -0.456,0.264 -0.952,0.396 -1.488,0.396 z m 0,-0.912 c 0.376,0 0.704,-0.104 0.984,-0.312 0.288,-0.208 0.512,-0.5 0.672,-0.876 0.16,-0.376 0.24,-0.812 0.24,-1.308 0,-0.504 -0.08,-0.944 -0.24,-1.32 -0.16,-0.376 -0.384,-0.668 -0.672,-0.876 -0.28,-0.208 -0.608,-0.312 -0.984,-0.312 -0.376,0 -0.708,0.104 -0.996,0.312 -0.28,0.208 -0.5,0.5 -0.66,0.876 -0.152,0.376 -0.228,0.816 -0.228,1.32 0,0.496 0.076,0.932 0.228,1.308 0.16,0.376 0.38,0.668 0.66,0.876 0.288,0.208 0.62,0.312 0.996,0.312 z m 6.64801,0.912 c -0.688,0 -1.196,-0.216 -1.524,-0.648 -0.32,-0.432 -0.48,-1.064 -0.48,-1.896 v -4.128 h 1.104 v 3.996 c 0,0.6 0.096,1.04 0.288,1.32 0.192,0.272 0.504,0.408 0.936,0.408 0.336,0 0.636,-0.088 0.9,-0.264 0.264,-0.176 0.552,-0.456 0.864,-0.84 v -4.62 h 1.092 v 6.516 h -0.912 l -0.084,-1.02 h -0.036 c -0.304,0.352 -0.628,0.636 -0.972,0.852 -0.336,0.216 -0.728,0.324 -1.176,0.324 z m 5.37601,-0.156 v -6.516 h 0.9 l 0.108,1.188 h 0.024 c 0.224,-0.416 0.496,-0.744 0.816,-0.984 0.328,-0.248 0.672,-0.372 1.032,-0.372 0.152,0 0.28,0.012 0.384,0.036 0.112,0.016 0.216,0.052 0.312,0.108 l -0.204,0.948 c -0.112,-0.032 -0.212,-0.056 -0.3,-0.072 -0.088,-0.024 -0.2,-0.036 -0.336,-0.036 -0.264,0 -0.548,0.116 -0.852,0.348 -0.304,0.224 -0.564,0.612 -0.78,1.164 v 4.188 z m 8.94,2.076 c -0.648,0 -1.26,-0.104 -1.836,-0.312 -0.568,-0.2 -1.068,-0.504 -1.5,-0.912 -0.432,-0.408 -0.772,-0.908 -1.02,-1.5 -0.24,-0.6 -0.36,-1.292 -0.36,-2.076 0,-0.904 0.148,-1.72 0.444,-2.448 0.304,-0.728 0.716,-1.352 1.236,-1.872 0.52,-0.52 1.116,-0.92 1.788,-1.2 0.68,-0.28 1.392,-0.42 2.136,-0.42 0.904,0 1.684,0.188 2.34,0.564 0.656,0.368 1.16,0.884 1.512,1.548 0.36,0.664 0.54,1.44 0.54,2.328 0,0.584 -0.08,1.1 -0.24,1.548 -0.16,0.44 -0.372,0.812 -0.636,1.116 -0.264,0.296 -0.556,0.52 -0.876,0.672 -0.312,0.152 -0.62,0.228 -0.924,0.228 -0.36,0 -0.672,-0.084 -0.936,-0.252 -0.256,-0.168 -0.404,-0.424 -0.444,-0.768 h -0.036 c -0.216,0.256 -0.468,0.476 -0.756,0.66 -0.288,0.176 -0.58,0.264 -0.876,0.264 -0.448,0 -0.832,-0.164 -1.152,-0.492 -0.312,-0.336 -0.468,-0.808 -0.468,-1.416 0,-0.352 0.06,-0.708 0.18,-1.068 0.128,-0.368 0.304,-0.708 0.528,-1.02 0.224,-0.312 0.496,-0.56 0.816,-0.744 0.32,-0.184 0.676,-0.276 1.068,-0.276 0.224,0 0.428,0.056 0.612,0.168 0.184,0.104 0.336,0.268 0.456,0.492 h 0.024 l 0.156,-0.552 h 0.72 l -0.528,2.676 c -0.256,1.056 -0.012,1.584 0.732,1.584 0.288,0 0.568,-0.108 0.84,-0.324 0.28,-0.224 0.512,-0.544 0.696,-0.96 0.184,-0.416 0.276,-0.912 0.276,-1.488 0,-0.544 -0.08,-1.044 -0.24,-1.5 -0.16,-0.456 -0.396,-0.852 -0.708,-1.188 -0.312,-0.336 -0.7,-0.596 -1.164,-0.78 -0.464,-0.192 -1,-0.288 -1.608,-0.288 -0.6,0 -1.18,0.124 -1.74,0.372 -0.56,0.24 -1.064,0.588 -1.512,1.044 -0.44,0.448 -0.792,0.992 -1.056,1.632 -0.264,0.632 -0.396,1.34 -0.396,2.124 0,0.656 0.1,1.24 0.3,1.752 0.2,0.504 0.48,0.928 0.84,1.272 0.36,0.352 0.784,0.62 1.272,0.804 0.488,0.184 1.016,0.276 1.584,0.276 0.408,0 0.796,-0.06 1.164,-0.18 0.376,-0.112 0.712,-0.252 1.008,-0.42 l 0.3,0.648 c -0.384,0.232 -0.788,0.404 -1.212,0.516 -0.424,0.112 -0.872,0.168 -1.344,0.168 z m -0.228,-3.588 c 0.184,0 0.38,-0.06 0.588,-0.18 0.208,-0.128 0.428,-0.336 0.66,-0.624 l 0.372,-2.124 c -0.12,-0.208 -0.248,-0.352 -0.384,-0.432 -0.136,-0.088 -0.296,-0.132 -0.48,-0.132 -0.256,0 -0.492,0.072 -0.708,0.216 -0.216,0.136 -0.4,0.32 -0.552,0.552 -0.144,0.224 -0.256,0.472 -0.336,0.744 -0.072,0.264 -0.108,0.52 -0.108,0.768 0,0.432 0.088,0.744 0.264,0.936 0.184,0.184 0.412,0.276 0.684,0.276 z m 9.93599,1.668 c -0.584,0 -1.112,-0.136 -1.584,-0.408 -0.472,-0.272 -0.848,-0.66 -1.128,-1.164 -0.272,-0.512 -0.408,-1.124 -0.408,-1.836 0,-0.536 0.08,-1.012 0.24,-1.428 0.16,-0.424 0.376,-0.784 0.648,-1.08 0.28,-0.304 0.596,-0.532 0.948,-0.684 0.352,-0.16 0.712,-0.24 1.08,-0.24 0.56,0 1.032,0.124 1.416,0.372 0.384,0.248 0.676,0.604 0.876,1.068 0.208,0.456 0.312,0.996 0.312,1.62 0,0.12 -0.004,0.232 -0.012,0.336 -0.008,0.104 -0.02,0.2 -0.036,0.288 h -4.392 c 0.024,0.464 0.128,0.868 0.312,1.212 0.192,0.336 0.444,0.6 0.756,0.792 0.312,0.184 0.676,0.276 1.092,0.276 0.32,0 0.608,-0.044 0.864,-0.132 0.264,-0.096 0.52,-0.224 0.768,-0.384 l 0.384,0.732 c -0.28,0.184 -0.596,0.34 -0.948,0.468 -0.352,0.128 -0.748,0.192 -1.188,0.192 z m -2.052,-3.936 h 3.492 c 0,-0.656 -0.144,-1.156 -0.432,-1.5 -0.28,-0.352 -0.676,-0.528 -1.188,-0.528 -0.304,0 -0.592,0.08 -0.864,0.24 -0.264,0.16 -0.488,0.388 -0.672,0.684 -0.176,0.296 -0.288,0.664 -0.336,1.104 z m 6.06001,3.78 v -6.516 h 0.9 l 0.108,0.948 h 0.024 c 0.288,-0.312 0.6,-0.576 0.936,-0.792 0.344,-0.216 0.708,-0.324 1.092,-0.324 0.504,0 0.896,0.112 1.176,0.336 0.28,0.224 0.488,0.528 0.624,0.912 0.344,-0.368 0.688,-0.668 1.032,-0.9 0.352,-0.232 0.728,-0.348 1.128,-0.348 0.664,0 1.156,0.22 1.476,0.66 0.328,0.432 0.492,1.064 0.492,1.896 v 4.128 h -1.092 v -3.984 c 0,-0.616 -0.1,-1.06 -0.3,-1.332 -0.192,-0.272 -0.496,-0.408 -0.912,-0.408 -0.248,0 -0.508,0.084 -0.78,0.252 -0.264,0.16 -0.552,0.408 -0.864,0.744 v 4.728 h -1.092 v -3.984 c 0,-0.616 -0.1,-1.06 -0.3,-1.332 -0.192,-0.272 -0.496,-0.408 -0.912,-0.408 -0.248,0 -0.508,0.084 -0.78,0.252 -0.272,0.16 -0.556,0.408 -0.852,0.744 v 4.728 z m 12.61201,0.156 c -0.36,0 -0.684,-0.072 -0.972,-0.216 -0.288,-0.144 -0.516,-0.352 -0.684,-0.624 -0.16,-0.28 -0.24,-0.616 -0.24,-1.008 0,-0.712 0.316,-1.256 0.948,-1.632 0.64,-0.384 1.656,-0.652 3.048,-0.804 0,-0.28 -0.04,-0.544 -0.12,-0.792 -0.072,-0.256 -0.204,-0.46 -0.396,-0.612 -0.192,-0.16 -0.468,-0.24 -0.828,-0.24 -0.376,0 -0.732,0.076 -1.068,0.228 -0.328,0.144 -0.624,0.3 -0.888,0.468 l -0.42,-0.756 c 0.2,-0.128 0.432,-0.256 0.696,-0.384 0.264,-0.136 0.552,-0.248 0.864,-0.336 0.312,-0.088 0.644,-0.132 0.996,-0.132 0.528,0 0.956,0.112 1.284,0.336 0.336,0.224 0.58,0.536 0.732,0.936 0.16,0.392 0.24,0.86 0.24,1.404 v 4.008 h -0.9 l -0.096,-0.78 h -0.036 c -0.304,0.256 -0.64,0.476 -1.008,0.66 -0.36,0.184 -0.744,0.276 -1.152,0.276 z m 0.312,-0.888 c 0.312,0 0.608,-0.072 0.888,-0.216 0.288,-0.144 0.588,-0.356 0.9,-0.636 v -1.812 c -0.728,0.08 -1.308,0.196 -1.74,0.348 -0.432,0.144 -0.74,0.324 -0.924,0.54 -0.184,0.208 -0.276,0.456 -0.276,0.744 0,0.376 0.112,0.644 0.336,0.804 0.224,0.152 0.496,0.228 0.816,0.228 z m 4.944,0.732 v -6.516 h 1.104 v 6.516 z m 0.552,-7.86 c -0.216,0 -0.392,-0.064 -0.528,-0.192 -0.128,-0.136 -0.192,-0.316 -0.192,-0.54 0,-0.216 0.064,-0.388 0.192,-0.516 0.136,-0.128 0.312,-0.192 0.528,-0.192 0.216,0 0.392,0.064 0.528,0.192 0.136,0.128 0.204,0.3 0.204,0.516 0,0.224 -0.068,0.404 -0.204,0.54 -0.136,0.128 -0.312,0.192 -0.528,0.192 z m 3.89999,8.016 c -0.272,0 -0.492,-0.056 -0.66,-0.168 -0.168,-0.112 -0.292,-0.276 -0.372,-0.492 -0.08,-0.224 -0.12,-0.488 -0.12,-0.792 v -8.256 h 1.104 v 8.328 c 0,0.168 0.028,0.288 0.084,0.36 0.064,0.072 0.136,0.108 0.216,0.108 h 0.096 c 0.032,-0.008 0.076,-0.016 0.132,-0.024 l 0.156,0.84 c -0.08,0.024 -0.168,0.044 -0.264,0.06 -0.096,0.024 -0.22,0.036 -0.372,0.036 z m 2.82001,0 c -0.216,0 -0.404,-0.076 -0.564,-0.228 -0.152,-0.16 -0.228,-0.36 -0.228,-0.6 0,-0.256 0.076,-0.46 0.228,-0.612 0.16,-0.152 0.348,-0.228 0.564,-0.228 0.216,0 0.4,0.076 0.552,0.228 0.16,0.152 0.24,0.356 0.24,0.612 0,0.24 -0.08,0.44 -0.24,0.6 -0.152,0.152 -0.336,0.228 -0.552,0.228 z m 5.15124,0 c -0.576,0 -1.096,-0.132 -1.56,-0.396 -0.456,-0.272 -0.82,-0.66 -1.092,-1.164 -0.264,-0.512 -0.396,-1.128 -0.396,-1.848 0,-0.728 0.144,-1.344 0.432,-1.848 0.288,-0.512 0.672,-0.904 1.152,-1.176 0.48,-0.272 0.996,-0.408 1.548,-0.408 0.424,0 0.788,0.076 1.092,0.228 0.312,0.152 0.58,0.332 0.804,0.54 l -0.552,0.72 c -0.184,-0.168 -0.384,-0.304 -0.6,-0.408 -0.208,-0.104 -0.44,-0.156 -0.696,-0.156 -0.392,0 -0.744,0.104 -1.056,0.312 -0.312,0.208 -0.556,0.5 -0.732,0.876 -0.176,0.376 -0.264,0.816 -0.264,1.32 0,0.496 0.084,0.932 0.252,1.308 0.176,0.376 0.412,0.668 0.708,0.876 0.304,0.208 0.656,0.312 1.056,0.312 0.304,0 0.584,-0.06 0.84,-0.18 0.256,-0.128 0.488,-0.284 0.696,-0.468 l 0.48,0.744 c -0.296,0.256 -0.624,0.456 -0.984,0.6 -0.36,0.144 -0.736,0.216 -1.128,0.216 z m 5.76503,0 c -0.528,0 -1.024,-0.132 -1.488,-0.396 -0.464,-0.272 -0.836,-0.66 -1.116,-1.164 -0.272,-0.512 -0.408,-1.128 -0.408,-1.848 0,-0.728 0.136,-1.344 0.408,-1.848 0.28,-0.512 0.652,-0.904 1.116,-1.176 0.464,-0.272 0.96,-0.408 1.488,-0.408 0.4,0 0.78,0.076 1.14,0.228 0.368,0.152 0.692,0.376 0.972,0.672 0.28,0.296 0.5,0.656 0.66,1.08 0.16,0.424 0.24,0.908 0.24,1.452 0,0.72 -0.14,1.336 -0.42,1.848 -0.28,0.504 -0.648,0.892 -1.104,1.164 -0.456,0.264 -0.952,0.396 -1.488,0.396 z m 0,-0.912 c 0.376,0 0.704,-0.104 0.984,-0.312 0.288,-0.208 0.512,-0.5 0.672,-0.876 0.16,-0.376 0.24,-0.812 0.24,-1.308 0,-0.504 -0.08,-0.944 -0.24,-1.32 -0.16,-0.376 -0.384,-0.668 -0.672,-0.876 -0.28,-0.208 -0.608,-0.312 -0.984,-0.312 -0.376,0 -0.708,0.104 -0.996,0.312 -0.28,0.208 -0.5,0.5 -0.66,0.876 -0.152,0.376 -0.228,0.816 -0.228,1.32 0,0.496 0.076,0.932 0.228,1.308 0.16,0.376 0.38,0.668 0.66,0.876 0.288,0.208 0.62,0.312 0.996,0.312 z m 4.74001,0.756 v -6.516 h 0.9 l 0.108,0.948 h 0.024 c 0.288,-0.312 0.6,-0.576 0.936,-0.792 0.344,-0.216 0.708,-0.324 1.092,-0.324 0.504,0 0.896,0.112 1.176,0.336 0.28,0.224 0.488,0.528 0.624,0.912 0.344,-0.368 0.688,-0.668 1.032,-0.9 0.352,-0.232 0.728,-0.348 1.128,-0.348 0.664,0 1.156,0.22 1.476,0.66 0.328,0.432 0.492,1.064 0.492,1.896 v 4.128 h -1.092 v -3.984 c 0,-0.616 -0.1,-1.06 -0.3,-1.332 -0.192,-0.272 -0.496,-0.408 -0.912,-0.408 -0.248,0 -0.508,0.084 -0.78,0.252 -0.264,0.16 -0.552,0.408 -0.864,0.744 v 4.728 h -1.092 v -3.984 c 0,-0.616 -0.1,-1.06 -0.3,-1.332 -0.192,-0.272 -0.496,-0.408 -0.912,-0.408 -0.248,0 -0.508,0.084 -0.78,0.252 -0.272,0.16 -0.556,0.408 -0.852,0.744 v 4.728 z"
       id="text2"
       style="font-size:12px;font-family:'Noto Sans JP';-inkscape-font-specification:'Noto Sans JP, @wght=400';font-variation-settings:'wght' 400;fill:#ffffff"
       aria-label="your@email.com"
       sodipodi:nodetypes="ssccsscccccccccccccccsssccscsscsssccsscssscsccsccsscsccscssccccccccsccccccsccccsccccscscscscsccscccsccccscscsssccccccscsssscscccsccsscccsssccccscccscssscscccsscssccccscccsscccscccccccccssccscsccscsccccscsccccsscsccccsccccssccscccccsscccccscscccccscscssscssscsccscsccccsscscscssssccscssccccssssccscccsssccscsscsssccsscssscsccsccsccccccssccscsccscsccccscscccc" />
  </g>
</svg>
