<?xml version="1.0" encoding="UTF-8" standalone="no"?>
<svg
   xml:space="preserve"
   id="Layer_1"
   width="71.412979"
   height="50.000401"
   x="0"
   y="0"
   version="1.1"
   viewBox="0 0 71.412981 50.000401"
   xmlns="http://www.w3.org/2000/svg"
   xmlns:svg="http://www.w3.org/2000/svg"><defs
   id="defs1" />
  <style
   id="style3"
   type="text/css">
    .st0{fill:red}.st1{fill:#fff}.st2{fill:#282828}
  </style>
  <g
   id="g5"
   transform="scale(0.58824)">
    <path
   id="path7"
   fill="#ffffff"
   fill-opacity="1"
   d="m 35.705078,0 c 0,0 -22.351218,1.149e-4 -27.939453,1.4707031 -3,0.8235294 -5.4713925,3.2946921 -6.2949219,6.3535157 C 1.149e-4,13.412454 0,25 0,25 0,25 1.149e-4,36.64637 1.4707031,42.175781 2.2942325,45.234605 4.7068015,47.647174 7.765625,48.470703 13.412684,50.000115 35.705078,50 35.705078,50 c 0,0 22.353171,-1.15e-4 27.941406,-1.470703 3.058824,-0.82353 5.471393,-3.236098 6.294922,-6.294922 1.470588,-5.588235 1.470703,-17.175781 1.470703,-17.175781 0,0 0.05871,-11.64614 -1.470703,-17.2343752 C 69.117877,4.7653952 66.705308,2.3528263 63.646484,1.5292969 58.058249,-1.1488e-4 35.705078,0 35.705078,0 Z M 28.587891,14.294922 47.175781,25 28.587891,35.705078 Z"
   transform="scale(1.7)" />
  </g>
</svg>
