<?xml version="1.0" encoding="UTF-8" standalone="no"?>
<!-- Created with Inkscape (http://www.inkscape.org/) -->

<svg
   width="118.53333mm"
   height="118.53333mm"
   viewBox="0 0 118.53333 118.53333"
   version="1.1"
   id="svg1"
   xmlns="http://www.w3.org/2000/svg"
   xmlns:svg="http://www.w3.org/2000/svg">
  <defs
     id="defs1" />
  <g
     id="layer1"
     transform="translate(-53.18125,-84.93125)">
    <path
       d="M 159.01458,84.93125 H 65.88125 c -7.011458,0 -12.7,5.688541 -12.7,12.699999 v 93.133331 c 0,7.01146 5.688542,12.7 12.7,12.7 h 93.13333 c 7.01146,0 12.7,-5.68854 12.7,-12.7 V 97.631249 c 0,-7.011458 -5.68854,-12.699999 -12.7,-12.699999 z m -4.28625,39.58167 c -0.37041,8.22854 -6.13833,19.52625 -17.27729,33.8402 -11.50937,14.94896 -21.24604,22.43667 -29.21,22.43667 -4.94771,0 -9.101666,-4.55083 -12.514791,-13.6525 -6.667499,-24.42104 -9.498541,-38.735 -15.001874,-38.735 -0.635,0 -2.8575,1.32292 -6.641042,3.99521 l -3.96875,-5.13292 c 9.763125,-8.5725 19.076458,-18.0975 24.897291,-18.62666 6.588126,-0.635 10.636246,3.86291 12.170836,13.5202 5.42396,34.29 7.83166,39.47584 17.67416,23.9448 3.54542,-5.60917 5.45042,-9.8425 5.68855,-12.77938 0.89958,-8.67833 -6.77334,-8.09625 -11.95917,-5.87375 4.15396,-13.62604 12.11792,-20.24062 23.83896,-19.87021 8.70479,0.26459 12.80583,5.92667 12.30312,16.93334 z"
       style="fill:#ffffff;stroke-width:0.264583"
       id="path1" />
  </g>
</svg>
